<svg xmlns="http://www.w3.org/2000/svg" viewBox="0 0 238 48" fill="none">
  <!-- Icon Mark: Circular "S" logo -->
  <g transform="translate(0, 0)">
    <svg width="48" height="48" viewBox="640 0 1536 1536">
      <g transform="translate(0,1536) scale(0.100000,-0.100000)" fill="#3366FF" stroke="none">
        <path d="M13920 13207 c-3 -2 -72 -7 -155 -11 -718 -30 -1526 -245 -2180 -579
-548 -280 -1042 -647 -1490 -1108 -904 -930 -1451 -2175 -1532 -3484 -13 -207
-7 -641 11 -842 103 -1142 546 -2195 1303 -3092 132 -156 457 -481 623 -621
904 -763 2007 -1217 3170 -1305 499 -37 1012 -6 1480 90 986 201 1888 652
2614 1306 612 552 1069 1184 1388 1919 94 217 109 255 179 469 126 388 215
802 249 1161 6 63 13 133 15 155 10 87 13 608 5 735 -26 384 -82 740 -171
1090 -41 160 -176 558 -244 720 -379 901 -980 1679 -1751 2267 -273 208 -556
385 -869 543 -594 300 -1272 496 -1935 559 -63 6 -136 14 -162 16 -63 7 -543
17 -548 12z m565 -487 c354 -28 770 -107 1085 -205 216 -68 559 -204 734 -292
1006 -505 1785 -1274 2275 -2243 306 -605 476 -1201 542 -1900 19 -196 16
-688 -4 -875 -37 -329 -89 -602 -173 -905 -134 -479 -358 -968 -639 -1395
-525 -795 -1251 -1421 -2111 -1818 -548 -253 -1026 -382 -1664 -449 -189 -20
-765 -17 -955 5 -888 102 -1599 364 -2340 861 -259 174 -446 328 -699 576
-408 399 -723 834 -980 1350 -262 526 -431 1093 -501 1675 -28 228 -38 685
-20 910 35 441 133 933 255 1280 89 252 284 694 364 825 8 14 55 93 104 175
116 195 322 487 442 625 12 14 45 52 73 85 303 352 723 709 1142 970 569 353
1159 577 1820 690 387 66 848 86 1250 55z"/>
        <path d="M13868 11295 c-247 -35 -489 -134 -687 -281 -110 -82 -279 -258 -350
-365 -116 -173 -197 -365 -242 -579 -20 -91 -23 -136 -23 -330 -1 -248 6 -310
60 -515 118 -455 358 -819 774 -1174 150 -128 209 -174 535 -406 366 -262 460
-332 579 -435 348 -301 541 -612 607 -979 29 -163 23 -381 -15 -525 -48 -183
-149 -350 -297 -492 -406 -386 -1039 -388 -1445 -2 -217 207 -319 432 -331
731 l-6 147 -231 -2 -231 -3 3 -135 c3 -154 12 -224 48 -364 45 -181 134 -363
255 -525 71 -97 232 -252 328 -316 l73 -50 -823 -3 c-452 -1 -824 0 -826 2 -2
2 25 239 61 527 36 288 75 605 86 704 12 99 41 340 66 535 25 195 58 467 75
604 16 136 45 368 64 515 19 146 37 284 39 306 3 22 14 112 26 200 24 191 26
212 40 335 13 117 48 402 56 453 l6 37 150 0 c139 0 150 1 143 18 -41 101
-115 370 -115 419 l0 23 -294 0 -294 0 -6 -37 c-5 -33 -168 -1346 -181 -1463
-3 -25 -10 -79 -15 -120 -22 -166 -172 -1366 -210 -1675 -22 -181 -49 -397
-60 -480 -10 -82 -24 -195 -30 -250 -6 -55 -20 -165 -30 -245 -11 -80 -38
-296 -60 -480 -22 -184 -43 -350 -45 -367 l-6 -33 2991 0 c2666 0 2990 2 2990
15 0 17 -52 442 -75 610 -24 179 -63 488 -85 675 -12 96 -75 609 -141 1140
-66 531 -122 985 -125 1010 -3 25 -7 52 -9 60 -2 8 -7 42 -10 75 -3 33 -8 71
-10 85 -3 14 -14 104 -25 200 -30 256 -57 482 -105 855 -14 110 -30 238 -35
285 -6 47 -13 97 -16 113 l-6 27 -1539 0 c-846 0 -1539 -4 -1539 -8 0 -45 107
-271 179 -378 l46 -69 1225 -5 1225 -5 3 -30 c1 -16 13 -120 27 -230 14 -110
40 -328 59 -485 19 -157 62 -503 96 -770 33 -267 70 -557 81 -645 91 -728 127
-1019 174 -1405 30 -245 61 -490 69 -545 7 -55 12 -101 11 -103 -1 -1 -372 -1
-824 0 l-822 3 83 60 c45 33 130 107 189 165 316 314 474 766 430 1230 -52
536 -310 1008 -764 1394 -105 89 -350 274 -565 426 -673 479 -934 739 -1099
1098 -101 219 -145 425 -145 672 0 338 93 573 316 796 131 130 244 201 405
253 135 44 220 55 384 48 219 -9 361 -55 542 -177 72 -48 187 -159 250 -241
136 -177 215 -425 215 -681 l0 -98 237 0 236 0 -7 143 c-8 181 -13 223 -38
327 -67 280 -215 553 -402 743 -216 221 -499 374 -797 432 -116 23 -378 28
-501 10z"/>
      </g>
    </svg>
  </g>

  <!-- Wordmark -->
  <text x="58" y="34" font-family="Inter, system-ui, -apple-system, sans-serif" font-weight="800" font-size="28"><tspan fill="#3366FF">Shilpo</tspan><tspan fill="#1E40AF">kart</tspan></text>
</svg>